<svg xmlns="http://www.w3.org/2000/svg" width="384.931" height="105.583" viewBox="0 0 384.931 105.583"><g transform="translate(-34.8 -31.857)"><g transform="translate(166.005 62.967)"><path d="M903.721,969.979c0,9.492-7.805,17.008-17.634,17.008-9.877,0-17.683-7.516-17.683-17.008s7.805-16.96,17.683-16.96C895.916,953.019,903.721,960.487,903.721,969.979Zm-31.414,0a13.734,13.734,0,0,0,27.464,0,13.736,13.736,0,0,0-27.464,0Z" transform="translate(-868.404 -952.971)" fill="#2e3841"/><path d="M980.433,980.6v15.611h-3.758V981.559c0-4.529-2.7-7.227-7.179-7.227-5.011.049-8.094,3.373-8.528,8.288v13.587h-3.758V970.863h3.758v5.589c1.783-3.854,5.2-5.685,9.83-5.733C976.867,970.719,980.433,974.429,980.433,980.6Z" transform="translate(-915.387 -962.335)" fill="#2e3841"/><path d="M1043.33,984.932h-20.718a8.958,8.958,0,0,0,9.2,8.288,10.636,10.636,0,0,0,7.853-3.229l2.072,2.169a13.477,13.477,0,0,1-10.214,4.191c-7.468,0-12.624-5.251-12.624-12.816s5.2-12.768,12.575-12.816C1039.668,970.719,1043.716,976.356,1043.33,984.932Zm-3.373-2.988c-.24-4.914-3.516-8.094-8.48-8.094-4.866,0-8.335,3.18-8.865,8.094Z" transform="translate(-948.027 -962.335)" fill="#2e3841"/><path d="M1091.384,956.674c-4.336,0-7.179,1.735-7.179,4.626,0,8.769,18.983,4.192,18.935,16.43,0,5.589-4.963,9.2-12.19,9.2a19.248,19.248,0,0,1-12.913-5.155l1.735-3.324A16.945,16.945,0,0,0,1091,983.175c4.866,0,7.9-1.976,7.9-5.252.047-9.009-18.935-4.24-18.935-16.333,0-5.3,4.674-8.673,11.66-8.673a19.955,19.955,0,0,1,10.7,3.132l-1.639,3.421A17.771,17.771,0,0,0,1091.384,956.674Z" transform="translate(-979.314 -952.917)" fill="#2e3841"/><path d="M1142.01,1005.861a8.018,8.018,0,0,1-5.348-1.831l1.59-2.988a5.992,5.992,0,0,0,3.565,1.2c1.976,0,3.614-1.253,4.626-3.662l1.06-2.409L1137,971.025h3.951l8.432,21.1,8.046-21.1h3.854l-11.66,28.957C1148.033,1003.837,1145.383,1005.861,1142.01,1005.861Z" transform="translate(-1010.329 -962.497)" fill="#2e3841"/><path d="M1222.4,980.6v15.611h-3.758V981.559c0-4.529-2.7-7.227-7.179-7.227-5.011.049-8.095,3.373-8.529,8.288v13.587h-3.758V970.863h3.758v5.589c1.783-3.854,5.2-5.685,9.829-5.733C1218.832,970.719,1222.4,974.429,1222.4,980.6Z" transform="translate(-1043.402 -962.335)" fill="#2e3841"/><path d="M1276.309,988.031a10.17,10.17,0,0,1-5.734,1.879c-3.71.048-6.456-2.168-6.456-7.179v-14.6h-3.661v-2.939h3.661v-6.649h3.71v6.649h8.047v2.939h-8.047V982.1c0,3.084,1.2,4.336,3.373,4.336a8.655,8.655,0,0,0,4.047-1.3Z" transform="translate(-1075.825 -955.894)" fill="#2e3841"/><path d="M1319.51,996.207v-3.951c-2.023,2.747-5.251,4.1-9.3,4.1-5.251,0-8.624-3.324-8.624-7.66,0-4.433,3.517-7.227,9.492-7.276h8.335v-1.59c0-3.71-2.312-5.974-6.793-5.974a13.8,13.8,0,0,0-8.046,2.939l-1.59-2.65c3.277-2.168,6.023-3.42,10.359-3.42,6.264,0,9.733,3.324,9.781,8.721l.048,16.767Zm-.048-8.721V984.4h-7.9c-4.24,0-6.456,1.3-6.456,4.144,0,2.795,2.264,4.674,5.83,4.674C1315.223,993.22,1318.5,991.1,1319.462,987.486Z" transform="translate(-1097.585 -962.335)" fill="#2e3841"/><path d="M1362.615,971.025l6.746,9.685,6.842-9.685h4.144l-8.48,12.287,9.106,13.057h-4.385l-7.227-10.407-7.468,10.407h-4.24l9.251-13.057-8.625-12.287Z" transform="translate(-1127.247 -962.497)" fill="#2e3841"/></g><g transform="translate(34.8 31.857)"><path d="M667.5,948.085l-55.022,33.281-.24.147-1.012.612a53.679,53.679,0,0,1-6.053-5.236,52.793,52.793,0,0,1,37.421-90.032h.125a52.473,52.473,0,0,1,18.05,3.228c.146.052.292.108.438.164l-1.058.64-.289.174-65.936,39.881,37.887,24.1,1.823-1.107,1.823-1.109,4.644-2.818,1.823-1.107,1.823-1.106-26.065-16.585,54.994-33.264.236-.146,1.016-.616A52.78,52.78,0,0,1,642.6,992.441h-.132a52.678,52.678,0,0,1-18.074-3.211c-.15-.052-.3-.108-.442-.163l1.058-.64.289-.174,65.964-39.895-38.068-24.215-3.646,2.213-4.644,2.818-1.823,1.106-1.823,1.11Z" transform="translate(-589.8 -886.857)" fill="#00b2de"/></g></g></svg>